<svg xmlns="http://www.w3.org/2000/svg" width="180.809" height="60.612" viewBox="0 0 180.809 60.612"><g transform="translate(-7601.502 1270.524)"><path d="M1593.5,617.857V557.276h25.842q12.623,0,20.335,8.388t7.71,22.284q0,16.353-10.506,24.4-7.372,5.508-18.471,5.507Zm15-12.625h8.811q7.287,0,11.1-4.448t3.813-12.836q0-8.389-3.9-13.26t-10.845-4.872H1608.5Z" transform="translate(6008 -1827.8)" fill="#fff"/><path d="M1716.741,618.1q-6.4,6.525-16.734,6.523t-16.775-6.523a24.2,24.2,0,0,1,0-32.875q6.437-6.523,16.775-6.524t16.734,6.524a24.318,24.318,0,0,1,0,32.875Zm-23.6-6.863a7.664,7.664,0,0,0,6.779,3.559,7.768,7.768,0,0,0,6.82-3.559q2.415-3.558,2.415-9.574t-2.415-9.617a7.745,7.745,0,0,0-6.82-3.6,7.665,7.665,0,0,0-6.779,3.559q-2.373,3.558-2.372,9.659Q1690.772,607.68,1693.144,611.238Z" transform="translate(5981.647 -1834.579)" fill="#fff"/><path d="M1830.151,618.1q-6.4,6.525-16.734,6.523t-16.776-6.523a24.2,24.2,0,0,1,0-32.875q6.439-6.523,16.776-6.524t16.734,6.524a24.317,24.317,0,0,1,0,32.875Zm-23.6-6.863a7.665,7.665,0,0,0,6.778,3.559,7.769,7.769,0,0,0,6.821-3.559q2.414-3.558,2.415-9.574t-2.415-9.617a7.746,7.746,0,0,0-6.821-3.6,7.666,7.666,0,0,0-6.778,3.559q-2.372,3.558-2.372,9.659Q1804.182,607.68,1806.554,611.238Z" transform="translate(5945.763 -1834.579)" fill="#fff"/><g transform="translate(7705.557 -1263.163)"><path d="M1776.542,610.449h-9.99V598.23h.006V584.2a.434.434,0,0,1,0-.054V575.5a.427.427,0,0,1,0-.054v-6.938a.467.467,0,0,0-.467-.467h-11.236a.466.466,0,0,0-.461.4c-.174,1.161-.78,4.577-2.073,6.235-1.314,1.684-5.037,2.61-6.233,2.87a.468.468,0,0,0-.367.456v5.263a.467.467,0,0,0,.467.467h5.311a.466.466,0,0,1,.466.466v5.955h.024a.025.025,0,0,0-.024.024v18.439c0,.436.011.861.034,1.273h0v.006a.866.866,0,0,0-.045.217,11.444,11.444,0,0,0,11.521,11.182h2.614a.506.506,0,0,0,.1-.009h.667a9.983,9.983,0,0,0,9.982-9.983v-.566A.289.289,0,0,0,1776.542,610.449Z" transform="translate(-1745.72 -568.044)" fill="#fff"/><path d="M1779.112,586.661h7.575a.541.541,0,0,0,.541-.541v-.691a8.237,8.237,0,0,0-8.237-8.237h0a.42.42,0,0,0-.42.42v8.509A.54.54,0,0,0,1779.112,586.661Z" transform="translate(-1756.115 -570.939)" fill="#fff"/></g></g></svg>